<?xml version="1.0" encoding="UTF-8"?>
<svg version="1.1" xmlns="http://www.w3.org/2000/svg" width="512" height="512">
<path d="M0 0 C8.80288754 6.34043826 15.4186507 14.72648904 17.58203125 25.4921875 C18.92007691 37.90936834 17.85729499 48.88109459 10.39453125 59.2421875 C4.75342929 65.98251918 -1.36032453 70.11056101 -9.41796875 73.4921875 C-8.3671729 73.49438734 -8.3671729 73.49438734 -7.29514885 73.49663162 C9.75632895 73.53369561 26.80758961 73.59270479 43.85890388 73.67609024 C52.10483244 73.71588672 60.35066548 73.74827608 68.59667969 73.76318359 C75.78455775 73.776197 82.9722257 73.80315355 90.15998542 73.84680057 C93.96532211 73.8694226 97.77039958 73.88509775 101.57580948 73.88407135 C105.15957595 73.88332515 108.74276925 73.90125868 112.32638741 73.93335533 C114.26465504 73.94590039 116.20301887 73.93878708 118.14131165 73.93104553 C128.76988884 74.05841421 128.76988884 74.05841421 133.58203125 78.4921875 C137.56433045 83.12026495 138.83372709 87.48294921 138.58203125 93.4921875 C136.91879377 99.36243744 134.52559717 102.19647689 129.58203125 105.4921875 C127.59298188 105.88562584 125.59241544 106.22862249 123.58203125 106.4921875 C124.07062622 107.49910645 124.07062622 107.49910645 124.5690918 108.52636719 C130.73239998 121.24215459 136.84337442 133.97627882 142.76953125 146.8046875 C147.53868471 157.1268645 152.36991126 167.41767145 157.24353027 177.69091797 C158.3911518 180.11006374 159.53796192 182.52959264 160.68457031 184.94921875 C164.1337097 192.22648451 167.58598742 199.50221674 171.04811096 206.77331543 C172.52491938 209.87763956 173.9974906 212.98396093 175.46908569 216.09075928 C176.15992416 217.54677645 176.85260158 219.00192276 177.54727173 220.45611572 C187.31179225 240.90101959 187.31179225 240.90101959 186.51953125 252.1171875 C186.4635376 252.98819092 186.40754395 253.85919434 186.34985352 254.7565918 C184.60785672 277.33626732 174.6800421 294.19561497 157.83203125 308.8046875 C140.78841198 321.79030218 120.14595163 324.71280836 99.26757812 322.21533203 C80.48162517 319.05294024 64.72377917 307.1508879 53.39453125 292.28125 C45.32519769 279.86421516 41.65768975 266.66520623 40.58203125 251.9921875 C40.50355957 251.13802246 40.42508789 250.28385742 40.34423828 249.40380859 C39.93728459 241.78754722 42.32582061 236.27683834 45.58203125 229.4921875 C46.22860163 228.10897054 46.87386816 226.72514362 47.51806641 225.34082031 C49.3785269 221.36279569 51.26697105 217.39866211 53.16366577 213.43780518 C55.29085955 208.99523853 57.4081691 204.54795834 59.52734375 200.1015625 C59.95591171 199.20309601 60.38447968 198.30462952 60.82603455 197.37893677 C64.83507786 188.97142008 68.8085835 180.54744858 72.76953125 172.1171875 C73.41698868 170.73966306 74.06444961 169.36214028 74.71191406 167.98461914 C75.68089604 165.92280527 76.6497726 163.86094207 77.6184082 161.79896545 C80.03853058 156.64728108 82.46195087 151.49715558 84.88671875 146.34765625 C85.24455948 145.58763306 85.60240021 144.82760986 85.97108459 144.04455566 C88.76986784 138.10019509 88.76986784 138.10019509 90.13290405 135.20611572 C91.07582333 133.20393032 92.0184104 131.2015888 92.9609375 129.19921875 C93.49275635 128.0697583 94.0245752 126.94029785 94.57250977 125.77661133 C97.58537115 119.3530049 100.58162823 112.92162255 103.58203125 106.4921875 C77.84203125 106.4921875 52.10203125 106.4921875 25.58203125 106.4921875 C25.58203125 185.6921875 25.58203125 264.8921875 25.58203125 346.4921875 C42.08203125 346.4921875 58.58203125 346.4921875 75.58203125 346.4921875 C90.64796086 351.51416404 101.46499751 358.05172146 109.29296875 371.88671875 C113.23662346 379.85768146 113.58203125 385.30457738 113.58203125 394.4921875 C23.82203125 394.4921875 -65.93796875 394.4921875 -158.41796875 394.4921875 C-158.41796875 379.46706053 -154.25814037 369.68504347 -144.10546875 358.7421875 C-124.05987741 339.77046713 -96.87281539 346.4921875 -70.41796875 346.4921875 C-70.41796875 267.2921875 -70.41796875 188.0921875 -70.41796875 106.4921875 C-96.15796875 106.4921875 -121.89796875 106.4921875 -148.41796875 106.4921875 C-145.61296875 112.3909375 -142.80796875 118.2896875 -139.91796875 124.3671875 C-132.02871204 140.96929347 -124.17778232 157.58892456 -116.36338806 174.22637939 C-113.6516029 179.99867897 -110.93243299 185.76747947 -108.20811462 191.53387451 C-106.4960026 195.15974782 -104.7906718 198.78849281 -103.10083008 202.42480469 C-100.16992595 208.72240163 -97.20557855 214.96862261 -93.96875 221.1171875 C-85.46849987 237.58527185 -83.82005872 252.42568458 -87.91796875 270.5546875 C-93.77845372 288.8099961 -105.75461614 305.31121733 -122.95703125 314.4296875 C-141.05179982 323.5249045 -162.41440913 326.14985989 -181.97265625 319.87109375 C-201.15043821 312.19563226 -216.56342488 299.3244493 -225.11083984 280.14135742 C-227.61268597 274.24414868 -229.55504911 268.85017939 -230.41796875 262.4921875 C-230.54510254 261.74050293 -230.67223633 260.98881836 -230.80322266 260.21435547 C-233.87317925 239.93391793 -224.78624993 224.49319877 -215.77392578 207.09960938 C-212.44477117 200.64255289 -209.3915979 194.05925704 -206.33364868 187.47070312 C-204.69947118 183.95650518 -203.04600967 180.4514039 -201.39453125 176.9453125 C-200.73464248 175.54234501 -200.07481186 174.13935016 -199.41503906 172.73632812 C-197.38428418 168.41957189 -195.35046999 164.10426033 -193.31640625 159.7890625 C-184.95686783 142.05102923 -176.65110051 124.28927429 -168.41796875 106.4921875 C-169.36575195 106.35192139 -170.31353516 106.21165527 -171.29003906 106.06713867 C-175.88604258 105.22233784 -178.36181996 102.91829114 -181.41796875 99.4921875 C-184.03590777 94.58355184 -183.71818188 89.77845548 -182.41796875 84.4921875 C-180.09000485 79.92248058 -177.23342155 76.43040976 -172.41796875 74.4921875 C-168.00179533 73.88716266 -163.61249533 73.92850836 -159.16064453 73.94628906 C-157.81001091 73.93754735 -156.45938764 73.92705948 -155.10877991 73.91496277 C-151.4542103 73.88715471 -147.79997949 73.88369691 -144.14531946 73.88468266 C-140.32156484 73.88154905 -136.49796179 73.85592156 -132.67428589 73.83270264 C-125.43900557 73.79217327 -118.20381531 73.77180918 -110.96843898 73.75872874 C-102.72895634 73.74284828 -94.48962673 73.70442828 -86.25023293 73.66413546 C-69.30619056 73.58177849 -52.36217281 73.52766018 -35.41796875 73.4921875 C-36.10812073 73.15313889 -36.79827271 72.81409027 -37.50933838 72.46476746 C-38.41278992 72.01772964 -39.31624146 71.57069183 -40.24707031 71.11010742 C-41.59167328 70.446847 -41.59167328 70.446847 -42.96343994 69.77018738 C-52.08124568 65.02281811 -58.21321299 56.81854852 -61.5546875 47.23046875 C-64.30860587 35.30512994 -63.44354225 22.55133257 -56.91015625 12.07421875 C-43.83447136 -6.07969724 -19.37214163 -12.08020463 0 0 Z M-159.41796875 127.4921875 C-159.81886719 128.34409668 -160.21976563 129.19600586 -160.6328125 130.07373047 C-166.25130208 142.01302083 -171.86979167 153.9523112 -177.48828125 165.89160156 C-177.81893082 166.59424637 -178.14958038 167.29689117 -178.49024963 168.02082825 C-179.15030995 169.42342718 -179.81041533 170.8260049 -180.4705658 172.2285614 C-182.10847081 175.70859956 -183.74558949 179.18900345 -185.38110352 182.67016602 C-188.5080218 189.32362064 -191.6429414 195.97299553 -194.80282593 202.61087036 C-196.2970589 205.75088698 -197.78723721 208.89281986 -199.27709961 212.03491211 C-199.98958898 213.53457562 -200.70407165 215.03329392 -201.4206543 216.53100586 C-202.41307619 218.60555877 -203.39863012 220.6832472 -204.3828125 222.76171875 C-204.94605225 223.94354736 -205.50929199 225.12537598 -206.08959961 226.34301758 C-207.63654463 229.71663023 -207.63654463 229.71663023 -208.41796875 234.4921875 C-175.08796875 234.4921875 -141.75796875 234.4921875 -107.41796875 234.4921875 C-114.91072882 217.82201266 -114.91072882 217.82201266 -122.76348877 201.33755493 C-129.62620854 187.3358746 -136.24091997 173.22820113 -142.76806641 159.06689453 C-145.45051957 153.25504498 -148.1488002 147.45055548 -150.84613037 141.64559937 C-152.24179646 138.64162774 -153.63648579 135.63720298 -155.03125 132.6328125 C-155.49313721 131.63797852 -155.95502441 130.64314453 -156.4309082 129.61816406 C-156.75663818 128.9165918 -157.08236816 128.21501953 -157.41796875 127.4921875 C-158.07796875 127.4921875 -158.73796875 127.4921875 -159.41796875 127.4921875 Z M112.58203125 127.4921875 C112.07941772 128.57258301 112.07941772 128.57258301 111.56665039 129.67480469 C104.83748282 144.13282414 98.08255034 158.57822803 91.26831055 172.99636841 C90.20372021 175.24919414 89.13987258 177.50236934 88.07617188 179.75561523 C84.77798238 186.74030657 81.47466892 193.72244642 78.15429688 200.69662476 C76.66935707 203.81761706 75.18856916 206.94056899 73.70843506 210.06384277 C73.00699052 211.54125857 72.30362374 213.01776348 71.59820557 214.49328613 C70.62045349 216.53880388 69.64939471 218.58737767 68.6796875 220.63671875 C68.12804932 221.79534424 67.57641113 222.95396973 67.00805664 224.14770508 C65.2726067 228.02566372 65.2726067 228.02566372 63.58203125 234.4921875 C96.58203125 234.4921875 129.58203125 234.4921875 163.58203125 234.4921875 C161.54305643 228.37526304 159.47855906 222.79964911 156.6953125 217.05859375 C156.3212175 216.27572495 155.9471225 215.49285614 155.56169128 214.68626404 C154.7600686 213.01019636 153.95607786 211.33525951 153.14990234 209.66137695 C151.8724981 207.00893722 150.60139823 204.35356028 149.33203125 201.69726562 C148.02629127 198.96497412 146.72021937 196.23284824 145.41226196 193.50161743 C141.26815727 184.84777741 137.16574359 176.17466483 133.08203125 167.4921875 C132.59266586 166.45244278 132.59266586 166.45244278 132.09341431 165.39169312 C126.16854389 152.79849793 120.33914419 140.16304266 114.58203125 127.4921875 C113.92203125 127.4921875 113.26203125 127.4921875 112.58203125 127.4921875 Z M-33.41796875 223.4921875 C-37.48606225 228.65976573 -38.54547347 232.88548016 -38.53822327 239.34541321 C-38.53959793 240.29467178 -38.5409726 241.24393036 -38.54238892 242.22195435 C-38.53879364 243.25126068 -38.53519836 244.28056702 -38.53149414 245.34106445 C-38.53164017 246.43419449 -38.53178619 247.52732452 -38.53193665 248.65357971 C-38.53124063 252.26256299 -38.52346271 255.8714945 -38.515625 259.48046875 C-38.51375972 261.98438997 -38.51233633 264.48831156 -38.51133728 266.99223328 C-38.50791076 272.90654166 -38.50003122 278.82083348 -38.48998779 284.73513335 C-38.47770121 292.13136164 -38.47234014 299.52759224 -38.46679688 306.92382812 C-38.45607486 320.11329251 -38.43848505 333.30273471 -38.41796875 346.4921875 C-27.85796875 346.4921875 -17.29796875 346.4921875 -6.41796875 346.4921875 C-6.35012684 332.04464309 -6.29511422 317.5972049 -6.26253223 303.14953709 C-6.24709385 296.44053488 -6.22606269 289.73163901 -6.19165039 283.02270508 C-6.15899665 276.54528109 -6.1411029 270.06796742 -6.13333702 263.59046745 C-6.12780436 261.12219443 -6.11700044 258.65392728 -6.10077858 256.18570137 C-6.07892488 252.722058 -6.07600522 249.25886751 -6.07739258 245.79516602 C-6.06660675 244.78024078 -6.05582092 243.76531555 -6.04470825 242.71963501 C-6.07267128 236.24583652 -6.33697836 228.93766231 -10.87000751 223.86837101 C-15.61621987 219.81260174 -18.81425073 219.13619548 -24.87890625 219.21484375 C-28.64257277 219.62595194 -30.63587062 220.9750511 -33.41796875 223.4921875 Z " fill="#064DA4" transform="translate(278.41796875,61.5078125)"/>
<path d="M0 0 C1.91301877 -0.00570941 3.82603414 -0.01267587 5.73904419 -0.02079773 C10.91269594 -0.03868182 16.08617764 -0.03756961 21.25985098 -0.03185534 C25.58867577 -0.02875641 29.91746824 -0.03486383 34.24628842 -0.04089409 C44.46369901 -0.05492232 54.68102596 -0.05339238 64.8984375 -0.04199219 C75.41741707 -0.03051442 85.93614158 -0.04458489 96.45508754 -0.07138866 C105.50680005 -0.09358486 114.55843271 -0.10017415 123.61017048 -0.09431225 C129.0073356 -0.09095065 134.40433727 -0.09330464 139.80147934 -0.11056328 C144.8790988 -0.12609271 149.95634207 -0.1220105 155.03394699 -0.10325813 C156.88980541 -0.09958873 158.74569208 -0.10263222 160.60152435 -0.11314392 C177.59783486 -0.20201082 190.00199004 2.83063752 202.81298828 14.71655273 C212.26574873 24.70437509 215.06298828 34.91558181 215.06298828 48.40405273 C125.30298828 48.40405273 35.54298828 48.40405273 -56.93701172 48.40405273 C-56.93701172 33.37892576 -52.77718334 23.59690871 -42.62451172 12.65405273 C-30.07719556 0.77891423 -16.337123 -0.04408839 0 0 Z " fill="#0B3F8C" transform="translate(176.93701171875,407.595947265625)"/>
<path d="M0 0 C1.12439484 -0.00852997 2.24878967 -0.01705994 3.40725708 -0.02584839 C4.64161499 -0.02494202 5.8759729 -0.02403564 7.1477356 -0.02310181 C8.44712067 -0.02981903 9.74650574 -0.03653625 11.08526611 -0.04345703 C14.65144495 -0.06113717 18.21752782 -0.06581327 21.78374624 -0.0670886 C24.76085904 -0.06898741 27.73794948 -0.07634478 30.71505368 -0.08343279 C37.73950084 -0.09972222 44.76389672 -0.10460127 51.7883606 -0.10317993 C59.03376302 -0.10197852 66.27886756 -0.12307873 73.5241946 -0.15466726 C79.74510279 -0.18082269 85.96591366 -0.19154753 92.18687642 -0.19026911 C95.90219599 -0.18975923 99.61725091 -0.1954564 103.33251572 -0.21662521 C107.47685847 -0.2395937 111.62053434 -0.23049128 115.7649231 -0.21841431 C116.99523254 -0.22965332 118.22554199 -0.24089233 119.49313354 -0.25247192 C120.62316803 -0.24408295 121.75320251 -0.23569397 122.91748047 -0.22705078 C123.89713713 -0.22814032 124.87679379 -0.22922985 125.88613701 -0.2303524 C129.35874546 0.40996331 131.05567468 1.85633776 133.58572388 4.26742554 C138.18064311 15.51066606 133.19645524 34.60967435 128.79275513 45.16879272 C119.64127771 65.6767981 103.28512146 78.26710279 82.80056763 86.36898804 C64.80126763 92.04181602 43.43723447 89.10216946 26.89822388 80.70492554 C8.89673089 70.90924132 -3.52364228 54.13973805 -9.28927612 34.64242554 C-10.53965321 28.92976524 -10.93223303 23.15499908 -11.28927612 17.32992554 C-11.35098999 16.41710815 -11.41270386 15.50429077 -11.47628784 14.56381226 C-11.69685023 9.62266561 -11.77309027 6.22215832 -8.41427612 2.26742554 C-5.05005246 0.02460976 -3.93495811 0.013473 0 0 Z " fill="#064DA4" transform="translate(330.4142761230469,295.7325744628906)"/>
<path d="M0 0 C1.12446533 -0.00426498 2.24893066 -0.00852997 3.4074707 -0.01292419 C4.64699493 -0.01247101 5.88651917 -0.01201782 7.16360474 -0.0115509 C9.11487274 -0.01658882 9.11487274 -0.01658882 11.1055603 -0.02172852 C14.6799813 -0.03057912 18.25437837 -0.03290709 21.82880926 -0.0335443 C24.81092906 -0.03449277 27.79304326 -0.0381704 30.77516091 -0.0417164 C37.81056954 -0.04986521 44.84596537 -0.05230027 51.88137817 -0.05158997 C59.14202325 -0.05098925 66.40259402 -0.06153884 73.66322029 -0.07733363 C79.89342374 -0.09040455 86.1236029 -0.09577404 92.35381997 -0.09513456 C96.07630849 -0.09487941 99.79873102 -0.09773968 103.5212059 -0.10831261 C107.6728906 -0.11978211 111.82440861 -0.11524952 115.97610474 -0.10920715 C117.21158051 -0.11482666 118.44705627 -0.12044617 119.7199707 -0.12623596 C121.41512817 -0.11994423 121.41512817 -0.11994423 123.14453125 -0.11352539 C124.61734715 -0.11434254 124.61734715 -0.11434254 126.11991692 -0.1151762 C128.81483671 0.14486621 130.43580363 0.669621 132.69924927 2.13371277 C137.44048017 11.61617457 134.21610468 29.91374331 131.07815552 39.68840027 C123.40269403 58.86618222 110.53151107 74.2791689 91.34841919 82.82658386 C73.89838294 90.22962954 52.50340521 91.25941237 34.69924927 84.13371277 C16.21506845 76.30979694 2.03639459 62.35363567 -5.82418823 43.82511902 C-9.64844591 34.26447482 -10.57371904 25.83106619 -10.67575073 15.57121277 C-10.68984985 14.49879333 -10.70394897 13.4263739 -10.71847534 12.32145691 C-10.70892822 10.80346497 -10.70892822 10.80346497 -10.69918823 9.25480652 C-10.69411255 7.8847345 -10.69411255 7.8847345 -10.68893433 6.48698425 C-10.22807522 3.69313464 -9.50699368 2.84679949 -7.30075073 1.13371277 C-4.72523434 -0.15404543 -2.88489639 0.00492766 0 0 Z " fill="#064DA4" transform="translate(58.300750732421875,295.8662872314453)"/>
<path d="M0 0 C8.80288754 6.34043826 15.4186507 14.72648904 17.58203125 25.4921875 C18.92007691 37.90936834 17.85729499 48.88109459 10.39453125 59.2421875 C3.58210875 67.3274193 -4.72289951 73.55522767 -15.48876953 74.71533203 C-28.40007937 75.61089799 -39.16843729 74.04490094 -49.3515625 65.46484375 C-57.86959925 57.33325857 -62.42046403 48.68416257 -62.88867188 36.85693359 C-63.04371176 24.34263074 -60.22647828 14.71931927 -51.41796875 5.4921875 C-37.63784493 -7.66275112 -16.31305228 -10.17259803 0 0 Z " fill="#01C5F8" transform="translate(278.41796875,61.5078125)"/>
<path d="M0 0 C6.6 0 13.2 0 20 0 C26.49451619 13.39294664 32.94521427 26.79976406 39.1875 40.3125 C44.33212644 51.44733663 49.554883 62.54311266 54.8125 73.625 C55.57442948 75.23199223 56.33631101 76.8390072 57.09814453 78.44604492 C60.18064566 84.94772991 63.26365694 91.44917107 66.34960938 97.94921875 C68.23543502 101.92229017 70.11745815 105.8971434 71.99691772 109.87322998 C72.70198276 111.36316121 73.40836358 112.85247056 74.11611938 114.34112549 C75.09249269 116.39511655 76.06435238 118.45118455 77.03515625 120.5078125 C77.5856665 121.66941895 78.13617676 122.83102539 78.70336914 124.02783203 C79.73328863 126.38863788 80.50382896 128.48642601 81 131 C80.52046875 130.68289063 80.0409375 130.36578125 79.546875 130.0390625 C75.83777894 128.52584233 72.22190798 128.53308589 68.25 128.375 C67.45722656 128.33632813 66.66445313 128.29765625 65.84765625 128.2578125 C63.89880584 128.163892 61.94943549 128.08087178 60 128 C51.9851409 111.00620477 43.97962003 94.00917808 36.1015625 76.95141602 C32.86633052 69.96521215 29.58033957 63.0054983 26.26171875 56.05859375 C25.43472466 54.32454828 24.60773899 52.5904988 23.78076172 50.85644531 C22.16474434 47.46873807 20.54155882 44.08458825 18.91455078 40.70214844 C18.16804288 39.13879189 17.42177518 37.57532062 16.67578125 36.01171875 C16.33367111 35.30558945 15.99156097 34.59946014 15.63908386 33.87193298 C13.62987152 29.64273889 12.16523267 25.53720549 11 21 C10.34 21 9.68 21 9 21 C8.74279427 21.82776695 8.74279427 21.82776695 8.48039246 22.67225647 C6.72704948 28.14204371 4.61694294 33.26924339 2.11328125 38.43359375 C1.55213875 39.60789696 1.55213875 39.60789696 0.97966003 40.80592346 C0.17803735 42.48199114 -0.62595339 44.15692799 -1.43212891 45.83081055 C-2.70953315 48.48325028 -3.98063302 51.13862722 -5.25 53.79492188 C-6.55573998 56.52721338 -7.86181188 59.25933926 -9.16976929 61.99057007 C-13.31387398 70.64441009 -17.41628766 79.31752267 -21.5 88 C-21.82624359 88.69316315 -22.15248718 89.38632629 -22.48861694 90.10049438 C-28.41348736 102.69368957 -34.24288706 115.32914484 -40 128 C-41.18078125 128.04898438 -42.3615625 128.09796875 -43.578125 128.1484375 C-45.13543937 128.22348879 -46.69272991 128.29903561 -48.25 128.375 C-49.41595703 128.42140625 -49.41595703 128.42140625 -50.60546875 128.46875 C-56.07379907 128.72658242 -56.07379907 128.72658242 -61 131 C-59.73516196 126.99449544 -58.26513075 123.2629958 -56.41796875 119.4921875 C-55.90532471 118.43862061 -55.39268066 117.38505371 -54.86450195 116.29956055 C-54.31109131 115.16945557 -53.75768066 114.03935059 -53.1875 112.875 C-51.99442112 110.42201046 -50.80519492 107.96716798 -49.6171875 105.51171875 C-49.16165245 104.57060997 -49.16165245 104.57060997 -48.69691467 103.61048889 C-45.66620505 97.33480659 -42.73246191 91.0153934 -39.8125 84.6875 C-34.64928468 73.50992883 -29.40453017 62.3730561 -24.125 51.25 C-16.02903208 34.19192377 -7.99774605 17.10432415 0 0 Z " fill="#01DBF8" transform="translate(382,168)"/>
<path d="M0 0 C6.6 0 13.2 0 20 0 C31.05413451 23.23771319 42.07616943 46.48975643 53.01757812 69.78076172 C55.79382742 75.69022145 58.57294945 81.59832923 61.3527832 87.50610352 C62.72211867 90.41627517 64.09037708 93.32694928 65.45776367 96.23803711 C68.28436479 102.25287885 71.11779034 108.2633991 74.00390625 114.25 C74.64984741 115.59396851 74.64984741 115.59396851 75.30883789 116.96508789 C76.07245505 118.55007477 76.84075731 120.13281802 77.61499023 121.71264648 C79.03670573 124.6663677 80 126.67686816 80 130 C79.01 129.67 78.02 129.34 77 129 C75.85273438 129.0928125 74.70546875 129.185625 73.5234375 129.28125 C69.18480464 129.59351401 65.08847736 129.65206999 61 128 C57.17414055 123.78292485 55.28323119 119.0525102 53.16210938 113.81152344 C51.46882857 109.71492222 49.55798868 105.72828056 47.66601562 101.72045898 C46.29378278 98.80404634 44.93968226 95.88013313 43.59545898 92.95072937 C39.471912 83.96452147 35.23688289 75.03258654 30.99087524 66.10372925 C25.55999909 54.67980328 20.13375817 43.25445141 14.875 31.75 C14.46741455 30.86393066 14.0598291 29.97786133 13.63989258 29.06494141 C11 23.243518 11 23.243518 11 21 C10.34 21 9.68 21 9 21 C8.62617187 22.23105469 8.25234375 23.46210938 7.8671875 24.73046875 C5.82246712 30.8515074 2.97542922 36.5336919 0.125 42.3125 C-1.05765825 44.73879189 -2.23897703 47.16567987 -3.41796875 49.59375 C-3.71856705 50.21188065 -4.01916534 50.83001129 -4.32887268 51.46687317 C-7.35969536 57.7127471 -10.28028672 64.00824367 -13.1875 70.3125 C-19.3878274 83.74605731 -25.72363546 97.11383327 -32.0847168 110.47192383 C-32.83122474 112.042477 -33.57772572 113.61303349 -34.32421875 115.18359375 C-34.66634399 115.90008087 -35.00846924 116.61656799 -35.36096191 117.35476685 C-37.02701692 120.86242007 -38.61108877 124.37298269 -40 128 C-41.19238281 128.06058594 -42.38476562 128.12117187 -43.61328125 128.18359375 C-45.17969925 128.26801149 -46.74610488 128.35265887 -48.3125 128.4375 C-49.09818359 128.47681641 -49.88386719 128.51613281 -50.69335938 128.55664062 C-51.8293457 128.61948242 -51.8293457 128.61948242 -52.98828125 128.68359375 C-53.68477783 128.72025146 -54.38127441 128.75690918 -55.09887695 128.79467773 C-57.2216572 128.95581153 -57.2216572 128.95581153 -60 130 C-57.72554136 122.50997242 -54.58366793 115.69941879 -51.125 108.6875 C-49.94234175 106.26120811 -48.76102297 103.83432013 -47.58203125 101.40625 C-47.28143295 100.78811935 -46.98083466 100.16998871 -46.67112732 99.53312683 C-43.64030334 93.28725021 -40.71986312 86.99168906 -37.8125 80.6875 C-32.61135663 69.42477126 -27.32152281 58.20629129 -22 47 C-14.57997399 31.37282425 -7.2510401 15.70631653 0 0 Z " fill="#01DBF8" transform="translate(110,168)"/>
</svg>
